<svg class="bee-waveline" version="1.1" id="Layer_1" xmlns="http://www.w3.org/2000/svg" xmlns:xlink="http://www.w3.org/1999/xlink" x="0px" y="0px" height="5px" viewBox="0 0 72 5" style="enable-background:new 0 0 72 5;" xml:space="preserve"><g><g><path d="M-1001,250c-0.17,0-0.35-0.05-0.51-0.14l-4.49-2.69l-4.49,2.69c-0.32,0.19-0.71,0.19-1.03,0l-4.49-2.69l-4.49,2.69 c-0.32,0.19-0.71,0.19-1.03,0l-4.49-2.69l-4.49,2.69c-0.32,0.19-0.71,0.19-1.03,0l-4.49-2.69l-4.49,2.69 c-0.32,0.19-0.71,0.19-1.03,0l-4.49-2.69l-4.49,2.69c-0.32,0.19-0.71,0.19-1.03,0l-4.49-2.69l-4.49,2.69 c-0.32,0.19-0.71,0.19-1.03,0l-4.49-2.69l-4.49,2.69c-0.47,0.28-1.09,0.13-1.37-0.34c-0.28-0.47-0.13-1.09,0.34-1.37l5-3 c0.32-0.19,0.71-0.19,1.03,0l4.49,2.69l4.49-2.69c0.32-0.19,0.71-0.19,1.03,0l4.49,2.69l4.49-2.69c0.32-0.19,0.71-0.19,1.03,0 l4.49,2.69l4.49-2.69c0.32-0.19,0.71-0.19,1.03,0l4.49,2.69l4.49-2.69c0.32-0.19,0.71-0.19,1.03,0l4.49,2.69l4.49-2.69 c0.32-0.19,0.71-0.19,1.03,0l4.49,2.69l4.49-2.69c0.32-0.19,0.71-0.19,1.03,0l5,3c0.47,0.28,0.63,0.9,0.34,1.37 C-1000.33,249.83-1000.66,250-1001,250z M71,5c-0.17,0-0.35-0.05-0.51-0.14L66,2.17l-4.49,2.69c-0.32,0.19-0.71,0.19-1.03,0 L56,2.17l-4.49,2.69c-0.32,0.19-0.71,0.19-1.03,0L46,2.17l-4.49,2.69c-0.32,0.19-0.71,0.19-1.03,0L36,2.17l-4.49,2.69 c-0.32,0.19-0.71,0.19-1.03,0L26,2.17l-4.49,2.69c-0.32,0.19-0.71,0.19-1.03,0L16,2.17l-4.49,2.69c-0.32,0.19-0.71,0.19-1.03,0 L6,2.17L1.51,4.86C1.04,5.14,0.43,4.99,0.14,4.51S0.01,3.43,0.49,3.14l5-3c0.32-0.19,0.71-0.19,1.03,0L11,2.83l4.49-2.69 c0.32-0.19,0.71-0.19,1.03,0L21,2.83l4.49-2.69c0.32-0.19,0.71-0.19,1.03,0L31,2.83l4.49-2.69c0.32-0.19,0.71-0.19,1.03,0L41,2.83 l4.49-2.69c0.32-0.19,0.71-0.19,1.03,0L51,2.83l4.49-2.69c0.32-0.19,0.71-0.19,1.03,0L61,2.83l4.49-2.69 c0.32-0.19,0.71-0.19,1.03,0l5,3c0.47,0.28,0.63,0.9,0.34,1.37C71.67,4.83,71.34,5,71,5z"/></g></g></svg>